<?xml version="1.0" encoding="utf-8"?>
<!-- Generator: Adobe Illustrator 16.0.0, SVG Export Plug-In . SVG Version: 6.00 Build 0)  -->
<!DOCTYPE svg PUBLIC "-//W3C//DTD SVG 1.1//EN" "http://www.w3.org/Graphics/SVG/1.1/DTD/svg11.dtd">
<svg version="1.1" id="Layer_1" xmlns="http://www.w3.org/2000/svg" xmlns:xlink="http://www.w3.org/1999/xlink" x="0px" y="0px"
	 width="60px" height="60px" viewBox="0 0 60 60" enable-background="new 0 0 60 60" xml:space="preserve">
<rect fill-rule="evenodd" clip-rule="evenodd" width="60" height="60"/>
<path fill-rule="evenodd" clip-rule="evenodd" fill="#F2F2F2" d="M32.699,46.129c-1.968,0-3.855,0-5.782,0c0-4.836,0-9.654,0-14.521
	c-1.638,0-3.241,0-4.863,0c0-1.899,0-3.746,0-5.624c1.611,0,3.206,0,4.857,0c0-0.168,0-0.301,0-0.435
	c0-1.372-0.033-2.744,0.009-4.113c0.053-1.744,0.467-3.384,1.614-4.766c1.045-1.257,2.419-1.926,4.005-2.204
	c1.529-0.267,3.061-0.106,4.593-0.022c0.428,0.023,0.856,0.064,1.312,0.1c0,1.661,0,3.306,0,5.017c-0.133,0-0.275-0.002-0.42,0
	c-1.079,0.021-2.16-0.01-3.232,0.078c-1.369,0.112-2.044,0.84-2.091,2.233c-0.048,1.344-0.01,2.691-0.01,4.082
	c1.84,0,3.673,0,5.571,0c-0.244,1.901-0.48,3.75-0.721,5.633c-1.6,0-3.196,0-4.842,0C32.699,36.449,32.699,41.277,32.699,46.129z"/>
</svg>
