<?xml version="1.0" encoding="utf-8"?>
<!-- Generator: Adobe Illustrator 16.0.0, SVG Export Plug-In . SVG Version: 6.00 Build 0)  -->
<!DOCTYPE svg PUBLIC "-//W3C//DTD SVG 1.1//EN" "http://www.w3.org/Graphics/SVG/1.1/DTD/svg11.dtd">
<svg version="1.1" id="Layer_1" xmlns="http://www.w3.org/2000/svg" xmlns:xlink="http://www.w3.org/1999/xlink" x="0px" y="0px"
	 width="60px" height="60px" viewBox="0 0 60 60" enable-background="new 0 0 60 60" xml:space="preserve">
<rect fill-rule="evenodd" clip-rule="evenodd" width="60" height="60"/>
<path fill-rule="evenodd" clip-rule="evenodd" fill="#F2F2F2" d="M29.913,45.436c-2.488,0-4.979,0.035-7.467-0.008
	c-4.555-0.078-7.764-3.311-7.797-7.885c-0.035-5.021-0.032-10.041-0.001-15.062c0.026-4.534,3.292-7.852,7.809-7.896
	c5.062-0.047,10.125-0.044,15.188-0.002c4.413,0.036,7.709,3.41,7.722,7.842c0.015,5.062,0.01,10.125,0.003,15.187
	c-0.009,4.393-3.196,7.692-7.609,7.805c-2.614,0.065-5.231,0.013-7.848,0.013C29.913,45.431,29.913,45.434,29.913,45.436z
	 M17.611,27.792c-0.037,0.396-0.094,0.724-0.095,1.05c-0.005,2.913-0.024,5.825,0.001,8.738c0.027,2.928,1.948,4.992,4.892,5.038
	c5.063,0.082,10.128,0.089,15.192,0.003c3.017-0.052,4.88-2.117,4.891-5.143c0.01-2.828,0.006-5.654-0.002-8.482
	c-0.001-0.401-0.055-0.803-0.086-1.222c-1.896,0-3.654,0-5.42,0c0.709,4.937,0.041,7.294-2.671,9.077
	c-2.512,1.65-5.212,1.828-7.775,0.289c-3.589-2.157-4.271-5.484-3.13-9.349C21.431,27.792,19.551,27.792,17.611,27.792z
	 M17.591,24.923c2.489,0,4.846,0.032,7.198-0.024c0.642-0.014,1.325-0.193,1.903-0.471c2.28-1.102,4.535-1.141,6.814-0.047
	c0.377,0.182,0.756,0.497,1.141,0.503c2.561,0.045,5.122,0.023,7.847,0.023c0-0.88,0.005-1.626,0-2.371
	c-0.02-3.015-1.887-5.068-4.916-5.116c-5.018-0.083-10.039-0.064-15.058-0.003c-2.56,0.031-4.583,1.671-4.903,3.923
	C17.46,22.448,17.591,23.599,17.591,24.923z M30.195,33.861c1.665-0.013,3.081-1.457,3.029-3.091
	c-0.048-1.585-1.482-2.958-3.069-2.938c-1.647,0.02-2.975,1.342-2.994,2.979C27.144,32.508,28.501,33.876,30.195,33.861z"/>
<path fill-rule="evenodd" clip-rule="evenodd" fill="#F2F2F2" d="M38.136,23.474c-2.118-0.002-2.118-0.002-2.118-2.419
	c0-1.925,0-1.925,2.273-1.923c2.014,0,2.019,0.006,2.018,2.332C40.305,23.476,40.305,23.476,38.136,23.474z"/>
</svg>
