<?xml version="1.0" encoding="utf-8"?>
<!-- Generator: Adobe Illustrator 16.0.0, SVG Export Plug-In . SVG Version: 6.00 Build 0)  -->
<!DOCTYPE svg PUBLIC "-//W3C//DTD SVG 1.1//EN" "http://www.w3.org/Graphics/SVG/1.1/DTD/svg11.dtd">
<svg version="1.1" id="Layer_1" xmlns="http://www.w3.org/2000/svg" xmlns:xlink="http://www.w3.org/1999/xlink" x="0px" y="0px"
	 width="60px" height="60px" viewBox="0 0 60 60" enable-background="new 0 0 60 60" xml:space="preserve">
<rect fill-rule="evenodd" clip-rule="evenodd" width="60" height="60"/>
<g>
	<path fill-rule="evenodd" clip-rule="evenodd" fill="#F2F2F2" stroke="#F2F2F2" stroke-miterlimit="10" d="M10.872,29.473
		c0.833-1.336,1.611-2.485,2.277-3.693c0.409-0.739,0.897-1.058,1.808-0.788c0,2.529,0,5.096,0,7.765
		c-0.28,0.018-0.59,0.037-1.027,0.063c0-1.977,0-3.861,0-5.747c-0.08-0.025-0.159-0.051-0.238-0.076
		c-0.641,1.03-1.269,2.067-1.925,3.087c-0.559,0.869-1.24,0.864-1.798-0.009c-0.645-1.009-1.265-2.032-2.071-3.336
		c0,2.179,0,4.05,0,6.008c-0.436,0.028-0.748,0.048-1.132,0.073c0-2.654,0-5.221,0-7.8c0.877-0.327,1.396-0.03,1.832,0.758
		C9.264,26.986,10.041,28.137,10.872,29.473z"/>
	<path fill-rule="evenodd" clip-rule="evenodd" fill="#F2F2F2" stroke="#F2F2F2" stroke-miterlimit="10" d="M39.704,32.674
		c-0.819,0.343-1.313,0.027-1.764-0.676c-1.064-1.668-2.199-3.29-3.487-5.198c0,2.142,0,3.981,0,5.904
		c-0.421,0.037-0.73,0.064-1.115,0.098c0-2.651,0-5.218,0-7.78c0.798-0.307,1.286-0.045,1.714,0.624
		c1.089,1.696,2.234,3.358,3.57,4.994c0-1.871,0-3.742,0-5.671c0.429,0,0.712,0,1.082,0C39.704,27.547,39.704,30.109,39.704,32.674z
		"/>
	<path fill-rule="evenodd" clip-rule="evenodd" fill="#F2F2F2" stroke="#F2F2F2" stroke-miterlimit="10" d="M54.379,32.687
		c-0.764,0.313-1.252,0.132-1.399-0.617c-0.256-1.299-1.069-1.468-2.261-1.488c-1.324-0.021-2.191,0.215-2.533,1.63
		c-0.074,0.309-0.643,0.498-0.983,0.741c-0.104-0.104-0.206-0.209-0.309-0.313c0.523-1.306,1.048-2.611,1.572-3.917
		c0.433-1.076,0.835-2.164,1.32-3.215c0.124-0.267,0.513-0.55,0.794-0.566c0.282-0.016,0.748,0.22,0.854,0.465
		c0.926,2.164,1.791,4.354,2.672,6.538C54.202,32.181,54.282,32.424,54.379,32.687z M50.632,26.325
		c-0.486,1.198-0.858,2.117-1.262,3.11c0.927,0,1.648,0,2.53,0C51.486,28.42,51.12,27.521,50.632,26.325z"/>
	<path fill-rule="evenodd" clip-rule="evenodd" fill="#F2F2F2" stroke="#F2F2F2" stroke-miterlimit="10" d="M16.536,25.059
		c0.993-0.322,1.263-0.053,1.235,0.723c-0.043,1.235-0.038,2.475,0,3.71c0.048,1.476,0.756,2.296,1.916,2.306
		c1.194,0.013,1.874-0.759,1.922-2.268c0.041-1.235,0.042-2.474,0.01-3.71c-0.019-0.728,0.184-1.089,0.976-0.84
		c0,1.962,0.16,3.941-0.054,5.879c-0.149,1.371-1.478,2.1-2.949,2.062c-1.403-0.039-2.56-0.783-2.749-2.178
		C16.587,28.869,16.624,26.957,16.536,25.059z"/>
	<path fill-rule="evenodd" clip-rule="evenodd" fill="#F2F2F2" stroke="#F2F2F2" stroke-miterlimit="10" d="M28.756,27.299
		c-0.314-0.229-0.609-0.493-0.95-0.672c-0.486-0.256-0.993-0.563-1.516-0.617c-0.238-0.024-0.809,0.613-0.751,0.768
		c0.177,0.459,0.539,0.889,0.927,1.21c0.3,0.251,0.753,0.313,1.129,0.478c1.251,0.552,1.801,1.426,1.59,2.52
		c-0.196,1.023-1.105,1.813-2.213,1.925c-1.303,0.133-2.366-0.49-2.754-1.63c-0.079-0.237-0.098-0.493-0.148-0.761
		c0.63-0.167,1.026-0.221,1.393,0.501c0.206,0.41,1.012,0.697,1.544,0.694c0.332-0.001,0.977-0.71,0.92-0.987
		c-0.097-0.474-0.585-0.913-1.002-1.257c-0.302-0.248-0.757-0.303-1.132-0.466c-1.203-0.528-1.75-1.492-1.47-2.566
		c0.292-1.119,1.402-1.771,2.741-1.612C28.29,24.973,28.926,25.688,28.756,27.299z"/>
	<path fill-rule="evenodd" clip-rule="evenodd" fill="#F2F2F2" stroke="#F2F2F2" stroke-miterlimit="10" d="M41.153,30.502
		c0.557-0.138,0.954-0.234,1.295,0.526c0.179,0.401,1.014,0.686,1.553,0.683c0.328-0.001,0.966-0.708,0.911-0.989
		c-0.095-0.472-0.578-0.92-0.995-1.253c-0.336-0.267-0.822-0.339-1.234-0.515c-1.008-0.431-1.544-1.172-1.388-2.294
		c0.148-1.07,0.854-1.63,1.866-1.817c1.166-0.216,2.259,0.272,2.673,1.18c0.136,0.298,0.188,0.631,0.288,0.983
		c-0.652,0.241-1.044,0.283-1.416-0.43c-0.184-0.352-0.909-0.566-1.388-0.563c-0.277,0.001-0.823,0.623-0.769,0.853
		c0.1,0.421,0.506,0.82,0.875,1.112c0.31,0.243,0.755,0.309,1.13,0.474c1.358,0.593,1.871,1.497,1.559,2.728
		c-0.287,1.133-1.478,1.867-2.803,1.729C41.969,32.769,41.216,31.94,41.153,30.502z"/>
	<path fill-rule="evenodd" clip-rule="evenodd" fill="#F2F2F2" stroke="#F2F2F2" stroke-miterlimit="10" d="M31.638,32.781
		c-0.356,0-0.642,0-1.001,0c0-2.597,0-5.151,0-7.805c0.298-0.02,0.608-0.042,1.001-0.069C31.638,27.547,31.638,30.102,31.638,32.781
		z"/>
</g>
</svg>
