<?xml version="1.0" encoding="utf-8"?>
<!-- Generator: Adobe Illustrator 16.0.0, SVG Export Plug-In . SVG Version: 6.00 Build 0)  -->
<!DOCTYPE svg PUBLIC "-//W3C//DTD SVG 1.1//EN" "http://www.w3.org/Graphics/SVG/1.1/DTD/svg11.dtd">
<svg version="1.1" id="Layer_1" xmlns="http://www.w3.org/2000/svg" xmlns:xlink="http://www.w3.org/1999/xlink" x="0px" y="0px"
	 width="60px" height="60px" viewBox="0 0 60 60" enable-background="new 0 0 60 60" xml:space="preserve">
<rect width="60" height="60"/>
<g>
	<path fill="#F2F2F2" d="M30.805,40.284c-3.845-0.129-6.812-0.21-9.776-0.34c-0.823-0.035-1.666-0.122-2.453-0.347
		c-1.708-0.49-2.756-1.631-3.011-3.433c-0.467-3.3-0.433-6.614-0.244-9.928c0.053-0.933,0.216-1.86,0.318-2.793
		c0.198-1.796,1.93-3.099,3.656-3.294c3.837-0.436,7.688-0.459,11.538-0.42c2.617,0.026,5.234,0.125,7.85,0.228
		c0.824,0.032,1.654,0.134,2.465,0.287c1.821,0.347,2.865,1.453,3.184,3.274c0.428,2.443,0.537,4.91,0.445,7.378
		c-0.068,1.834-0.223,3.674-0.461,5.493c-0.244,1.868-1.668,3.206-3.572,3.339C37.145,39.979,33.538,40.136,30.805,40.284z
		 M27.199,25.396c0,3.089,0,6.059,0,9.109c2.497-1.535,4.92-3.023,7.41-4.555C32.108,28.414,29.685,26.925,27.199,25.396z"/>
	<path d="M27.199,25.396c2.486,1.528,4.909,3.019,7.41,4.555c-2.492,1.531-4.913,3.019-7.41,4.556
		C27.199,31.455,27.199,28.484,27.199,25.396z"/>
</g>
</svg>
